<svg width="80" height="23" viewBox="0 0 80 23" fill="none" xmlns="http://www.w3.org/2000/svg">
<path d="M32.7988 19.1356V7.39754H37.2362V5.5202H26.2755V7.39754H30.7129V19.1356H32.7988Z" fill="#111827"/>
<path d="M40.0801 13.9973C40.0801 11.7787 41.654 10.8305 43.8158 10.9443V8.95319C42.166 8.95319 40.649 9.82548 39.9473 11.2098V9.08593H38.1648V19.1363H40.0801V13.9973Z" fill="#111827"/>
<path d="M51.6083 15.0024C51.6083 16.5763 50.5653 17.6382 49.2758 17.6382C48.0243 17.6382 47.152 16.9176 47.152 15.173V9.08593H45.2367V15.5523C45.2367 18.1313 46.64 19.3259 48.669 19.3259C50.0344 19.3259 51.2101 18.5864 51.7411 17.5434V19.1363H53.5236V9.08593H51.6083V15.0024Z" fill="#111827"/>
<path d="M64.1438 16.1394C64.1438 14.6982 63.1957 13.8259 61.2046 13.4656L59.4979 13.1432C58.2842 12.9157 57.7722 12.5364 57.7722 11.721C57.7722 10.8487 58.5877 10.3367 59.8013 10.3367C61.1477 10.3367 62.0389 11.0383 62.1527 12.252H63.9921C63.8215 10.185 62.1906 8.89551 59.7823 8.89551C57.4499 8.89551 55.9139 10.1281 55.9139 11.8917C55.9139 13.4087 56.9568 14.3568 58.8152 14.7171L60.446 15.0205C61.6976 15.2671 62.2096 15.6274 62.2096 16.4617C62.2096 17.4099 61.3183 17.884 59.972 17.884C58.4359 17.884 57.4309 17.1065 57.355 15.8549H55.5156C55.7053 18.0167 57.2792 19.3251 59.934 19.3251C62.6078 19.3251 64.1438 18.1115 64.1438 16.1394Z" fill="#111827"/>
<path d="M71.7676 17.277C71.3694 17.4667 70.9711 17.5425 70.516 17.5425C69.492 17.5425 68.8283 17.0495 68.8283 15.6652V10.7159H71.8624V9.08504H68.8283V6.10785H66.913V9.08504H64.6943V10.7159H66.913V16.1013C66.913 18.32 68.2025 19.325 70.0609 19.325C70.6677 19.325 71.1797 19.2302 71.7676 18.9647V17.277Z" fill="#111827"/>
<path d="M79.6917 17.2775C79.2934 17.4672 78.8952 17.543 78.4401 17.543C77.4161 17.543 76.7524 17.05 76.7524 15.6657V10.7163H79.7865V9.08552H76.7524V6.10834H74.8371V9.08552H72.6184V10.7163H74.8371V16.1018C74.8371 18.3205 76.1266 19.3255 77.985 19.3255C78.5918 19.3255 79.1038 19.2307 79.6917 18.9652V17.2775Z" fill="#111827"/>
<path d="M2.6636 0H20.0569C20.7632 0.000422652 21.4404 0.281167 21.9398 0.780563C22.4392 1.27996 22.7199 1.95716 22.7203 2.66342V20.0566C22.7199 20.7628 22.4392 21.44 21.9398 21.9394C21.4404 22.4388 20.7632 22.7196 20.0569 22.72H2.6636C1.95734 22.7196 1.28014 22.4388 0.780736 21.9394C0.281337 21.44 0.000587589 20.7628 0.000164934 20.0566V2.66342C-0.0161874 1.20169 1.18551 0 2.6636 0Z" fill="#111827"/>
<path d="M13.8013 14.1903C14.326 13.9655 14.7779 13.5993 15.1067 13.1326C15.5136 12.5363 15.6854 11.8105 15.589 11.0951C15.4926 10.3797 15.1348 9.72524 14.5846 9.25794C14.0485 8.80446 13.3482 8.57075 12.6474 8.57075H8.77272C8.77092 8.57069 8.76914 8.571 8.76747 8.57167C8.7658 8.57233 8.76428 8.57332 8.76301 8.57459C8.76174 8.57586 8.76074 8.57738 8.76008 8.57905C8.75942 8.58072 8.75911 8.58251 8.75916 8.58431V17.1166H10.2432V14.3136H12.0707L14.0769 17.1166H15.8768C15.8768 17.1166 15.8904 17.103 15.8768 17.103L13.8029 14.1915L13.8013 14.1903ZM13.061 12.7737C12.9863 12.8014 12.907 12.8149 12.8273 12.8135C12.7874 12.8135 12.7447 12.8271 12.6897 12.8271H10.2692V10.0544H12.5776C13.2648 10.0544 13.883 10.3842 14.0617 11.0164C14.2974 11.7722 13.8152 12.5551 13.061 12.7737Z" fill="#FDFDFD"/>
<path d="M19.5005 17.1034H17.687L15.6673 14.2868C16.5603 13.5725 17.0824 12.4733 17.0824 11.209C17.0824 9.02423 15.296 7.08709 13.1115 7.08709H7.28573V17.1034H5.80165V7.08709H3.21838V5.60303H13.6472C15.0762 5.60303 16.1068 6.29022 17.0409 7.22429C17.9462 8.13074 18.4826 9.34107 18.5461 10.6206C18.6096 11.9001 18.1957 13.1576 17.3847 14.1492C17.4808 14.2868 18.7312 16.0317 19.5005 17.1034Z" fill="#FDFDFD"/>
</svg>
